<svg width="100" height="100" viewBox="0 0 100 100" fill="none" xmlns="http://www.w3.org/2000/svg">
  <circle cx="50" cy="50" r="50" fill="#f3f4f6"/>
  <path d="M50 25C36.1929 25 25 36.1929 25 50C25 63.8071 36.1929 75 50 75C63.8071 75 75 63.8071 75 50C75 36.1929 63.8071 25 50 25ZM50 32.1429C55.9143 32.1429 60.7143 36.9429 60.7143 42.8571C60.7143 48.7714 55.9143 53.5714 50 53.5714C44.0857 53.5714 39.2857 48.7714 39.2857 42.8571C39.2857 36.9429 44.0857 32.1429 50 32.1429ZM50 67.8571C43.5 67.8571 37.7857 64.9286 33.9286 60.2857C34.0714 54.9286 44.6429 52.1429 50 52.1429C55.3571 52.1429 65.9286 54.9286 66.0714 60.2857C62.2143 64.9286 56.5 67.8571 50 67.8571Z" fill="#9ca3af"/>
</svg>
